<mxfile host="app.diagrams.net" agent="Mozilla/5.0 (Windows NT 10.0; Win64; x64) AppleWebKit/537.36 (KHTML, like Gecko) Chrome/132.0.0.0 Safari/537.36" version="26.0.7">
  <diagram name="Page-1" id="LI6C_ffdKO2tYnCpabyK">
    <mxGraphModel dx="989" dy="542" grid="1" gridSize="10" guides="1" tooltips="1" connect="1" arrows="1" fold="1" page="1" pageScale="1" pageWidth="850" pageHeight="1100" math="0" shadow="0">
      <root>
        <mxCell id="0" />
        <mxCell id="1" parent="0" />
        <mxCell id="o-R4HfdIsCgZwP89W37w-1" value="Writing toolkit scripts" style="rounded=1;whiteSpace=wrap;html=1;absoluteArcSize=1;arcSize=14;strokeWidth=2;fontStyle=1;fontSize=15;" vertex="1" parent="1">
          <mxGeometry x="150" y="300" width="100" height="100" as="geometry" />
        </mxCell>
        <mxCell id="o-R4HfdIsCgZwP89W37w-2" value="" style="verticalLabelPosition=bottom;verticalAlign=top;html=1;strokeWidth=2;shape=mxgraph.arrows2.arrow;dy=0.6;dx=40;notch=0;fontStyle=1;fontSize=15;" vertex="1" parent="1">
          <mxGeometry x="250" y="315" width="70" height="70" as="geometry" />
        </mxCell>
        <mxCell id="o-R4HfdIsCgZwP89W37w-3" value="Fine-tune&lt;div&gt;from&lt;/div&gt;&lt;div&gt;RoBERT-small&lt;/div&gt;" style="rounded=1;whiteSpace=wrap;html=1;absoluteArcSize=1;arcSize=14;strokeWidth=2;fontStyle=1;fontSize=15;" vertex="1" parent="1">
          <mxGeometry x="660" y="300" width="100" height="100" as="geometry" />
        </mxCell>
        <mxCell id="o-R4HfdIsCgZwP89W37w-4" value="" style="verticalLabelPosition=bottom;verticalAlign=top;html=1;strokeWidth=2;shape=mxgraph.arrows2.arrow;dy=0.6;dx=40;notch=0;fontStyle=1;fontSize=15;" vertex="1" parent="1">
          <mxGeometry x="410" y="317.5" width="80" height="70" as="geometry" />
        </mxCell>
        <mxCell id="o-R4HfdIsCgZwP89W37w-5" value="Collecting&amp;nbsp;&lt;div&gt;initial data&lt;/div&gt;" style="shape=parallelogram;html=1;strokeWidth=2;perimeter=parallelogramPerimeter;whiteSpace=wrap;rounded=1;arcSize=12;size=0.23;fontStyle=1;fontSize=15;" vertex="1" parent="1">
          <mxGeometry x="300" y="307.5" width="140" height="80" as="geometry" />
        </mxCell>
        <mxCell id="o-R4HfdIsCgZwP89W37w-6" value="" style="verticalLabelPosition=bottom;verticalAlign=top;html=1;strokeWidth=2;shape=mxgraph.arrows2.arrow;dy=0.6;dx=40;notch=0;fontStyle=1;fontSize=15;" vertex="1" parent="1">
          <mxGeometry x="760" y="320" width="70" height="70" as="geometry" />
        </mxCell>
        <mxCell id="o-R4HfdIsCgZwP89W37w-7" value="Evaluate&lt;div&gt;the model&lt;/div&gt;" style="rounded=1;whiteSpace=wrap;html=1;absoluteArcSize=1;arcSize=14;strokeWidth=2;fontStyle=1;fontSize=15;" vertex="1" parent="1">
          <mxGeometry x="830" y="305" width="100" height="100" as="geometry" />
        </mxCell>
        <mxCell id="o-R4HfdIsCgZwP89W37w-8" value="End" style="strokeWidth=2;html=1;shape=mxgraph.flowchart.terminator;whiteSpace=wrap;fontStyle=1;fontSize=15;" vertex="1" parent="1">
          <mxGeometry x="930" y="325" width="100" height="60" as="geometry" />
        </mxCell>
        <mxCell id="o-R4HfdIsCgZwP89W37w-9" value="&lt;font style=&quot;font-size: 15px;&quot;&gt;&lt;b&gt;Manually&lt;/b&gt;&lt;/font&gt;&lt;div&gt;&lt;font style=&quot;font-size: 15px;&quot;&gt;&lt;b&gt;labeling&lt;/b&gt;&lt;/font&gt;&lt;/div&gt;&lt;div&gt;&lt;font style=&quot;font-size: 15px;&quot;&gt;&lt;b&gt;data&lt;/b&gt;&lt;/font&gt;&lt;/div&gt;" style="rounded=1;whiteSpace=wrap;html=1;absoluteArcSize=1;arcSize=14;strokeWidth=2;" vertex="1" parent="1">
          <mxGeometry x="490" y="300" width="100" height="100" as="geometry" />
        </mxCell>
        <mxCell id="o-R4HfdIsCgZwP89W37w-10" value="" style="verticalLabelPosition=bottom;verticalAlign=top;html=1;strokeWidth=2;shape=mxgraph.arrows2.arrow;dy=0.6;dx=40;notch=0;" vertex="1" parent="1">
          <mxGeometry x="590" y="315" width="70" height="70" as="geometry" />
        </mxCell>
      </root>
    </mxGraphModel>
  </diagram>
</mxfile>
